<svg xmlns="http://www.w3.org/2000/svg" width="900" height="520" viewBox="0 0 900 520" font-family="Helvetica,Arial,sans-serif"><rect width="900" height="520" fill="#ffffff"/><rect x="90" y="50" width="780" height="400" fill="#fbfbfd" stroke="#c8c8d0"/><line x1="90" y1="50.0" x2="870" y2="50.0" stroke="#e2e2ea"/><text x="82" y="54.0" text-anchor="end" font-size="12" fill="#555">0</text><line x1="90" y1="150.0" x2="870" y2="150.0" stroke="#e2e2ea"/><text x="82" y="154.0" text-anchor="end" font-size="12" fill="#555">25</text><line x1="90" y1="250.0" x2="870" y2="250.0" stroke="#e2e2ea"/><text x="82" y="254.0" text-anchor="end" font-size="12" fill="#555">50</text><line x1="90" y1="350.0" x2="870" y2="350.0" stroke="#e2e2ea"/><text x="82" y="354.0" text-anchor="end" font-size="12" fill="#555">75</text><line x1="90" y1="450.0" x2="870" y2="450.0" stroke="#e2e2ea"/><text x="82" y="454.0" text-anchor="end" font-size="12" fill="#555">100</text><line x1="201.4" y1="50" x2="201.4" y2="450" stroke="#e2e2ea"/><text x="201.4" y="468" text-anchor="middle" font-size="12" fill="#555">4.6</text><line x1="312.9" y1="50" x2="312.9" y2="450" stroke="#e2e2ea"/><text x="312.9" y="468" text-anchor="middle" font-size="12" fill="#555">9.1</text><line x1="424.3" y1="50" x2="424.3" y2="450" stroke="#e2e2ea"/><text x="424.3" y="468" text-anchor="middle" font-size="12" fill="#555">13.7</text><line x1="535.7" y1="50" x2="535.7" y2="450" stroke="#e2e2ea"/><text x="535.7" y="468" text-anchor="middle" font-size="12" fill="#555">18.3</text><line x1="647.1" y1="50" x2="647.1" y2="450" stroke="#e2e2ea"/><text x="647.1" y="468" text-anchor="middle" font-size="12" fill="#555">22.9</text><line x1="758.6" y1="50" x2="758.6" y2="450" stroke="#e2e2ea"/><text x="758.6" y="468" text-anchor="middle" font-size="12" fill="#555">27.4</text><line x1="870.0" y1="50" x2="870.0" y2="450" stroke="#e2e2ea"/><text x="870.0" y="468" text-anchor="middle" font-size="12" fill="#555">32</text><text x="450.0" y="508" text-anchor="middle" font-size="14" fill="#333">并发连接数</text><text x="18" y="260.0" text-anchor="middle" font-size="14" fill="#333" transform="rotate(-90 18 260.0)">错误率</text><text x="450.0" y="26" text-anchor="middle" font-size="18" font-weight="bold" fill="#111">错误率对比</text><polyline points="114.4,450.0 138.8,450.0 187.5,450.0 285.0,450.0 480.0,449.9 675.0,449.8 870.0,449.6" fill="none" stroke="#4682b4" stroke-width="2.5"/><circle cx="114.4" cy="450.0" r="4" fill="#4682b4"/><circle cx="138.8" cy="450.0" r="4" fill="#4682b4"/><circle cx="187.5" cy="450.0" r="4" fill="#4682b4"/><circle cx="285.0" cy="450.0" r="4" fill="#4682b4"/><circle cx="480.0" cy="449.9" r="4" fill="#4682b4"/><circle cx="675.0" cy="449.8" r="4" fill="#4682b4"/><circle cx="870.0" cy="449.6" r="4" fill="#4682b4"/><polyline points="114.4,450.0 138.8,450.0 187.5,450.0 285.0,450.0 480.0,449.8 675.0,449.2 870.0,448.4" fill="none" stroke="#cd5c5c" stroke-width="2.5"/><circle cx="114.4" cy="450.0" r="4" fill="#cd5c5c"/><circle cx="138.8" cy="450.0" r="4" fill="#cd5c5c"/><circle cx="187.5" cy="450.0" r="4" fill="#cd5c5c"/><circle cx="285.0" cy="450.0" r="4" fill="#cd5c5c"/><circle cx="480.0" cy="449.8" r="4" fill="#cd5c5c"/><circle cx="675.0" cy="449.2" r="4" fill="#cd5c5c"/><circle cx="870.0" cy="448.4" r="4" fill="#cd5c5c"/><rect x="100" y="486" width="14" height="14" fill="#4682b4"/><text x="120" y="498" font-size="13" fill="#333">修正前 (before)</text><rect x="300" y="486" width="14" height="14" fill="#cd5c5c"/><text x="320" y="498" font-size="13" fill="#333">修正后 (after)</text></svg>